<svg xmlns="http://www.w3.org/2000/svg" xmlns:xlink="http://www.w3.org/1999/xlink" viewBox="0,0,256,256" width="100px" height="100px"><g fill="#edcb39" fill-rule="nonzero" stroke="none" stroke-width="1" stroke-linecap="butt" stroke-linejoin="miter" stroke-miterlimit="10" stroke-dasharray="" stroke-dashoffset="0" font-family="none" font-weight="none" font-size="none" text-anchor="none" style="mix-blend-mode: normal"><g transform="scale(2.56,2.56)"><path d="M31,17.98828c-7.18,0 -13,5.82 -13,13v39c0,7.18 5.82,13 13,13h39c7.179,0 13,-5.82 13,-13v-39c0,-7.18 -5.82,-13 -13,-13zM31,19.98828h39c6.075,0 11,4.925 11,11v39c0,6.075 -4.925,11 -11,11h-39c-6.075,0 -11,-4.925 -11,-11v-39c0,-6.075 4.924,-11 11,-11zM33.83789,22.98828c-5.985,0 -10.83789,4.85094 -10.83789,10.83594v33.32617c0,5.985 4.85289,10.83789 10.83789,10.83789h33.32422c5.985,0 10.83789,-4.85189 10.83789,-10.83789v-18.66211c0,-0.276 -0.224,-0.5 -0.5,-0.5c-0.276,0 -0.5,0.224 -0.5,0.5v18.66211c0,5.433 -4.40489,9.83789 -9.83789,9.83789h-33.32422c-5.433,0 -9.83789,-4.40489 -9.83789,-9.83789v-33.32617c0,-5.433 4.40489,-9.83594 9.83789,-9.83594h33.66211c0.276,0 0.5,-0.224 0.5,-0.5c0,-0.276 -0.224,-0.5 -0.5,-0.5zM51,32c-10.201,0 -18.5,8.299 -18.5,18.5c0,1.563 0.19694,3.12 0.58594,4.625c0.178,0.691 0.40011,1.38264 0.66211,2.05664c0.334,0.862 0.73617,1.70467 1.20117,2.51367l-2.42969,8.66992c-0.048,0.17 -0.00191,0.35542 0.12109,0.48242c0.095,0.098 0.22537,0.15234 0.35938,0.15234c0.04,0 0.07914,-0.00562 0.11914,-0.01562l2.5,-0.61914c0.268,-0.066 0.43123,-0.33652 0.36523,-0.60352c-0.066,-0.267 -0.33552,-0.43224 -0.60352,-0.36523l-1.66797,0.41211l2.25586,-8.04687c0.037,-0.131 0.01822,-0.27167 -0.05078,-0.38867c-0.482,-0.818 -0.89728,-1.67769 -1.23828,-2.55469c-0.247,-0.637 -0.457,-1.29036 -0.625,-1.94336c-0.367,-1.424 -0.55469,-2.896 -0.55469,-4.375c0,-9.649 7.851,-17.5 17.5,-17.5c9.649,0 17.5,7.851 17.5,17.5c0,9.649 -7.851,17.5 -17.5,17.5c-2.984,0 -5.93525,-0.7687 -8.53125,-2.2207c-0.111,-0.062 -0.23728,-0.07883 -0.36328,-0.04883l-1.72461,0.42578c-0.267,0.066 -0.43123,0.33647 -0.36523,0.60547c0.066,0.266 0.33152,0.42723 0.60352,0.36523l1.53516,-0.38086c2.703,1.475 5.7577,2.25391 8.8457,2.25391c10.201,0 18.5,-8.299 18.5,-18.5c0,-10.201 -8.299,-18.5 -18.5,-18.5zM77.5,36.56641c-0.276,0 -0.5,0.224 -0.5,0.5v2c0,0.276 0.224,0.5 0.5,0.5c0.276,0 0.5,-0.223 0.5,-0.5v-2c0,-0.276 -0.224,-0.5 -0.5,-0.5zM77.5,40.56641c-0.276,0 -0.5,0.224 -0.5,0.5v4c0,0.276 0.224,0.5 0.5,0.5c0.276,0 0.5,-0.223 0.5,-0.5v-4c0,-0.276 -0.224,-0.5 -0.5,-0.5zM44.53516,41c-0.29,0 -1.03573,0.07558 -1.67773,0.76758l-0.0918,0.0957c-0.529,0.556 -1.76562,1.85688 -1.76562,4.29688c0,2.285 1.46933,4.48008 2.11133,5.33008l0.07813,0.10938c1.417,2.003 4.4093,5.62677 8.5293,7.38477c1.143,0.486 2.04556,0.78706 2.85156,1.03906c0.752,0.237 1.45164,0.3125 2.05664,0.3125c0.49,0 0.91958,-0.04961 1.26758,-0.09961c1.031,-0.153 3.22475,-1.26972 3.71875,-2.63672c0.399,-1.106 0.50714,-2.31028 0.24414,-2.73828c-0.177,-0.291 -0.49072,-0.44091 -0.88672,-0.62891l-0.26367,-0.12695c-0.28,-0.14 -2.89306,-1.41852 -3.41406,-1.60352c-0.395,-0.143 -1.12541,-0.40445 -1.69141,0.43555c-0.292,0.432 -1.14953,1.43552 -1.51953,1.85352c-0.109,0.122 -0.14475,0.16391 -0.46875,0.00391c-0.087,-0.043 -0.20556,-0.09425 -0.35156,-0.15625c-0.694,-0.298 -1.98609,-0.85164 -3.49609,-2.18164c-1.358,-1.196 -2.29767,-2.66714 -2.63867,-3.24414c-0.092,-0.156 -0.09228,-0.15681 0.13672,-0.38281c0.157,-0.153 0.33662,-0.36798 0.51563,-0.58398l0.24805,-0.29492c0.254,-0.292 0.36705,-0.5182 0.49805,-0.7832l0.06445,-0.13281c0.308,-0.611 0.04398,-1.13083 -0.04102,-1.29883c-0.072,-0.146 -0.57827,-1.36105 -0.94727,-2.24805l-0.55469,-1.33008c-0.425,-1.007 -0.96892,-1.11767 -1.54492,-1.13867c-0.294,-0.015 -0.6308,-0.01953 -0.9668,-0.01953zM44.53516,42c0.32,0 0.63802,0.00362 0.91602,0.01563l0.13867,0.00195c0.18,0.003 0.3092,-0.00266 0.5332,0.52734l0.55469,1.32617c0.537,1.289 0.89356,2.1455 0.97656,2.3125c0.103,0.203 0.09302,0.29639 0.04102,0.40039l-0.06836,0.13867c-0.116,0.234 -0.18552,0.37631 -0.35352,0.57031l-0.26367,0.31055c-0.156,0.189 -0.31322,0.37672 -0.44922,0.51172c-0.234,0.232 -0.78292,0.77352 -0.29492,1.60352c0.365,0.619 1.37289,2.19533 2.83789,3.48633c1.63,1.437 3.07167,2.05456 3.76367,2.35156c0.125,0.054 0.22873,0.09581 0.30273,0.13281c0.436,0.215 1.07716,0.42072 1.66016,-0.23828c0.305,-0.346 1.25366,-1.44508 1.59766,-1.95508c0.127,-0.189 0.13039,-0.19573 0.52539,-0.05273c0.389,0.138 2.66055,1.23559 3.31055,1.55859l0.27539,0.13281c0.185,0.089 0.41845,0.20017 0.43945,0.20117c0.052,0.171 0.03841,0.96583 -0.30859,1.92383c-0.316,0.874 -2.04678,1.85538 -2.92578,1.98438c-0.678,0.101 -1.71295,0.19022 -2.87695,-0.17578c-0.781,-0.244 -1.65581,-0.53391 -2.75781,-1.00391c-3.893,-1.661 -6.74752,-5.12401 -8.10352,-7.04102l-0.10742,-0.15039c-0.57,-0.757 -1.89844,-2.73089 -1.89844,-4.71289c0,-2.041 1.00723,-3.09842 1.49023,-3.60742l0.09961,-0.10547c0.386,-0.416 0.82131,-0.44727 0.94531,-0.44727zM38.58008,66.64258c-0.06419,-0.01013 -0.13147,-0.00748 -0.19922,0.00977l-1,0.24805c-0.268,0.065 -0.43123,0.33552 -0.36523,0.60352c0.055,0.229 0.25838,0.38086 0.48438,0.38086c0.039,0 0.07914,-0.00562 0.11914,-0.01562l1,-0.24609c0.268,-0.066 0.43123,-0.33747 0.36523,-0.60547c-0.05025,-0.20025 -0.21173,-0.34462 -0.4043,-0.375z"></path></g></g></svg>